# xmcd CD database file
#
# Track frame offsets:
#	150
#	15360
#	31257
#	46610
#	61161
#	79866
#	95687
#	109631
#	126782
#	147664
#	164608
#	179255
#
# Disc length: 2621 seconds
#
# Revision: 0
# Processed by: cddbd v1.5.1PL2 Copyright (c) Steve Scherf et al.
# Submitted via: CDex 1.51
#
DISCID=960a3b0c
DTITLE=Norah Jones - Feels Like Home
DYEAR=2005
DGENRE=Blues
TTITLE0=Sunrise
TTITLE1=What Am I to You?
TTITLE2=Those Sweet Words
TTITLE3=Carnival Town
TTITLE4=In the Morning
TTITLE5=Be Here to Love Me
TTITLE6=Creepin' In
TTITLE7=Toes
TTITLE8=Humble Me
TTITLE9=The Long Way Home
TTITLE10=The Prettiest Thing
TTITLE11=Don't Miss You AtAll
EXTD=YEAR: 2005
EXTT0=
EXTT1=
EXTT2=
EXTT3=
EXTT4=
EXTT5=
EXTT6=
EXTT7=
EXTT8=
EXTT9=
EXTT10=
EXTT11=
PLAYORDER=
